<?xml version="1.0" encoding="UTF-8"?>
<svg id="Capa_2" data-name="Capa 2" xmlns="http://www.w3.org/2000/svg" viewBox="0 0 289.02 171.25">
  <defs>
    <style>
      .cls-1 {
        fill: #fff;
      }

      .cls-2 {
        fill: #ffd800;
      }

      .cls-3 {
        fill: #e32213;
      }

      .cls-4 {
        fill: #5fc2e2;
      }
    </style>
  </defs>
  <g id="Capa_1-2" data-name="Capa 1">
    <g>
      <g>
        <rect class="cls-4" x="78.98" y="71.35" width="183.79" height="67.96"/>
        <polygon class="cls-2" points="289.02 75.26 1.64 86.2 0 43.13 287.38 22.66 289.02 75.26"/>
        <g>
          <path class="cls-3" d="m31.19,71.39l.23,6.01-16.15.62-.94-24.74,7.42-.28.71,18.73,8.73-.33Z"/>
          <path class="cls-3" d="m50.05,72.94l-7.39.28-1.08,4.15-7.33-.11,7.37-25.02,7.95-.3,9.18,24.39-7.3.67-1.39-4.05Zm-1.76-5.24l-2.39-7.02-1.85,7.19,4.24-.16Z"/>
          <path class="cls-3" d="m87.91,56.84l-7.1.27.7,18.38-7.42.28-.77-18.38-7.03.27-.24-6.36,21.63-.82.24,6.36Z"/>
          <path class="cls-3" d="m102.04,70.96l-7.39.28-1.08,4.15-7.33-.11,7.37-25.02,7.95-.3,9.18,24.39-7.3.67-1.39-4.05Zm-1.76-5.24l-2.39-7.02-1.85,7.19,4.24-.16Z"/>
          <path class="cls-3" d="m134.47,48.7l.94,24.74-5.76.22-10.07-11.69.46,12.05-7.17.27-.94-24.74,5.76-.22,10.07,11.65-.46-12.02,7.17-.27Z"/>
          <path class="cls-3" d="m160.14,76.78l-3.89-4.45c-1.57.7-3.32,1.12-5.19,1.19-7.46.28-13.29-5.12-13.57-12.54-.28-7.46,5.12-13.26,12.58-13.54,7.53-.29,13.29,5.09,13.57,12.54.13,3.32-.86,6.3-2.68,8.63l3.7,4.21-4.52,3.96Zm-9.32-9.63c3.89-.15,5.53-3.57,5.4-6.9-.13-3.36-2.02-6.61-5.91-6.46-3.89.15-5.53,3.54-5.4,6.89.13,3.32,2.02,6.61,5.91,6.47Z"/>
          <path class="cls-3" d="m165.98,62.83l-.58-15.27,7.42-.28.59,15.59c.08,2.23,1.65,3.26,3.48,3.16s3.32-1.22,3.23-3.45l-.59-15.59,7.42-.25.58,15.27c.24,6.33-4.99,10.21-10.36,10.41-5.44.21-10.96-3.26-11.2-9.59Z"/>
          <path class="cls-3" d="m196.94,52.34l.12,3.18,9.15-.35.23,6.01-9.15.35.13,3.53,9.86-.38.23,6.01-17.28.66-.94-24.74,17.5-.67.23,6.01-10.07.38Z"/>
          <path class="cls-3" d="m225.47,66.26l-7.39.28-1.08,4.15-7.33-.11,7.37-25.02,7.95-.3,9.18,24.39-7.3.67-1.39-4.05Zm-1.76-5.24l-2.39-7.02-1.85,7.18,4.24-.16Z"/>
          <path class="cls-3" d="m258.12,56.28c.24,6.22-3.59,12.63-11.19,12.92l-10.64.41-.94-24.74,10.64-.41c7.71-.29,11.9,5.67,12.13,11.82Zm-7.42.39c-.13-3.46-2.19-6.29-6.43-6.13l-1.27.05.48,12.72,1.27-.05c4.24-.16,6.07-3.17,5.94-6.6Z"/>
          <path class="cls-3" d="m274.11,64.41l-7.39.28-1.08,4.15-7.33-.11,7.37-25.02,7.95-.3,9.18,24.39-7.3.67-1.39-4.05Zm-1.76-5.24l-2.39-7.02-1.85,7.19,4.24-.16Z"/>
        </g>
        <g>
          <path class="cls-2" d="m145.84,86.33l-15.86,46.76h-17.55l-15.86-46.76,14.5-1.42,10.03,31.98,10.03-31.98,14.71,1.42Z"/>
          <path class="cls-2" d="m150.24,85.65h14.23v47.44h-14.23v-47.44Z"/>
          <path class="cls-2" d="m213.33,109.17c0,11.93-7.79,23.92-22.36,23.92h-20.4v-47.44h20.4c14.77,0,22.36,11.72,22.36,23.51Zm-14.23.2c0-6.64-3.73-12.2-11.86-12.2h-2.44v24.39h2.44c8.13,0,11.86-5.62,11.86-12.2Z"/>
          <path class="cls-2" d="m243.34,125.9h-14.16l-2.37,7.86-14.03-.75,15.92-47.37h15.25l15.79,47.37-14.03.75-2.37-7.86Zm-2.98-10.16l-4.07-13.62-4.07,13.62h8.13Z"/>
        </g>
        <g>
          <path class="cls-1" d="m59.13,105.41l-8.96.34.88,23.18-9.36.36-.97-23.17-8.87.34-.3-8.02,27.28-1.04.31,8.02Z"/>
          <path class="cls-1" d="m61.31,116.62l-.73-19.25,9.36-.36.75,19.66c.11,2.81,2.08,4.12,4.39,3.98,2.32-.13,4.18-1.54,4.08-4.35l-.75-19.66,9.36-.31.73,19.25c.3,7.98-6.29,12.87-13.07,13.13-6.86.26-13.81-4.12-14.12-12.09Z"/>
        </g>
        <g>
          <path class="cls-1" d="m13.44,130.19c-.32-.86-.57-1.77-.76-2.76-.97,2.17-2.9,3.32-5.05,3.4-3.2.12-6.41-2.07-6.59-6.74s2.86-7.12,6.11-7.25c2.02-.08,3.92.85,5.07,2.75l-.29-7.74,2.31-.09.54,14.17c.06,1.65.38,2.93.87,4.17l-2.2.08Zm-1.06-6.53c-.12-3.25-2.42-4.95-4.68-4.87-2.26.09-4.42,1.96-4.3,5.21.12,3.23,2.45,4.95,4.68,4.87,2.26-.09,4.42-1.96,4.29-5.21Z"/>
          <path class="cls-1" d="m31.7,123.43l-11.12.42c.37,2.8,2.51,4.56,5.37,4.45,1.57-.06,3.26-.65,4.9-1.68l.57,1.84c-1.85,1.07-3.69,1.69-5.56,1.76-3.96.15-7.48-2.34-7.65-6.83-.18-4.62,3.28-7.14,6.61-7.27,3.39-.13,6.46,2.07,6.84,6.39l.04.92Zm-2.24-1.62c-.35-2.33-2.25-3.88-4.51-3.8-2.23.08-4.01,1.75-4.36,4.13l8.87-.34Z"/>
        </g>
      </g>
      <g>
        <path class="cls-1" d="m27.54,157.07c1.77,0,3.27.5,4.38,1.16l-.4,1.95c-.77-.61-2.17-1.19-3.78-1.19-2.93,0-5.31,1.95-5.31,5.17s2.38,5.12,5.31,5.12c1.61,0,3.04-.58,3.8-1.16l.4,1.9c-1.08.71-2.61,1.21-4.41,1.21-4.12,0-7.47-2.59-7.47-7.05s3.46-7.13,7.47-7.13Z"/>
        <path class="cls-1" d="m33.95,164.15c0-4.04,3.14-7.1,7.05-7.1s7.05,3.06,7.05,7.1-3.09,7.1-7.05,7.1-7.05-3.06-7.05-7.1Zm11.75,0c0-2.9-1.98-5.17-4.7-5.17s-4.67,2.27-4.67,5.17,1.93,5.17,4.65,5.17,4.72-2.24,4.72-5.17Z"/>
        <path class="cls-1" d="m64.13,163.57v7.18h-2.32v-6.89c0-3.38-1.79-4.7-3.83-4.7-2.46,0-4.54,1.87-4.54,5.83v5.75h-2.32v-8.97c0-1.66-.13-2.88-.53-4.22h2.24c.26.95.45,2.03.55,3.01,1.06-2.35,2.98-3.46,5.17-3.46,2.82,0,5.57,1.87,5.57,6.47Z"/>
        <path class="cls-1" d="m96.52,148.42l-7.57,22.33h-8.38l-7.57-22.33,6.93-.68,4.79,15.28,4.79-15.28,7.02.68Z"/>
        <path class="cls-1" d="m98.62,148.09h6.8v22.65h-6.8v-22.65Z"/>
        <path class="cls-1" d="m131.05,148.42l-7.57,22.33h-8.38l-7.57-22.33,6.93-.68,4.79,15.28,4.79-15.28,7.02.68Z"/>
        <path class="cls-1" d="m139.95,153.59v2.91h8.38v5.5h-8.38v3.24h9.03v5.5h-15.83v-22.65h16.02v5.5h-9.22Z"/>
        <path class="cls-1" d="m170.85,153.92h-6.51v16.83h-6.8l-.06-16.83h-6.44v-5.83h19.81v5.83Z"/>
        <path class="cls-1" d="m179.68,153.59v2.91h8.38v5.5h-8.38v3.24h9.03v5.5h-15.83v-22.65h16.02v5.5h-9.22Z"/>
        <path class="cls-1" d="m200.55,163.76h-2.1v6.99h-6.8v-22.65h9.81c5.47,0,8.25,3.53,8.25,7.67,0,2.46-.97,4.82-2.91,6.34l5.11,8.22-6.8.78-4.56-7.35Zm-2.1-4.24h1.81c1.84,0,2.78-1.49,2.78-2.98s-.91-2.91-2.78-2.91h-1.81v5.89Z"/>
        <path class="cls-1" d="m230.42,156.05c0,4.3-2.85,7.99-8.29,7.99h-2.91v6.7h-6.8v-22.65h9.71c5.44,0,8.29,3.66,8.29,7.96Zm-6.8,0c0-1.39-.78-2.46-2.39-2.46h-2.01v4.95h2.01c1.62,0,2.39-1.07,2.39-2.49Z"/>
        <path class="cls-1" d="m239.48,153.59v2.91h8.38v5.5h-8.38v3.24h9.03v5.5h-15.83v-22.65h16.02v5.5h-9.22Z"/>
        <path class="cls-1" d="m266.24,165.25v5.5h-14.79v-22.65h6.8v17.15h7.99Z"/>
      </g>
      <g>
        <path class="cls-1" d="m18.79,33.95c-.19-.76-.39-1.53-.55-2.29-1.54,1.85-3.82,2.88-6.18,3.07-5.42.45-11-3.45-11.57-10.45C-.12,16.79,5.43,11.66,12.37,11.09c2.58-.21,5.28.22,7.94,1.36l-.16,5.57c-2.25-.92-4.37-1.36-6.46-1.19-3.9.32-6.76,2.7-6.41,6.92.31,3.74,2.83,5.55,5.99,5.29,2.03-.17,3.8-1.13,3.89-2.89l-4.29.35-.42-5.16,10-.82.57,6.58c.17,2.13.73,4.97,1.37,6.38l-5.58.46Z"/>
        <path class="cls-1" d="m39.99,28.76l-6.74.55-.82,3.83-6.71.19,5.73-23.17,7.26-.6,9.37,21.93-6.65.9-1.44-3.65Zm-2.33-21.6l-5.87.48c.4-2.63,1.52-5.26,2.37-7.11l6.52-.54c-.95,1.86-2.29,4.54-3.02,7.17Zm.51,16.88l-2.47-6.32-1.4,6.64,3.87-.32Z"/>
        <path class="cls-1" d="m68.73,7.11l1.85,22.58-5.26.43-9.68-10.28.9,11-6.55.54-1.85-22.58,5.26-.43,9.67,10.25-.9-10.97,6.55-.54Z"/>
        <path class="cls-1" d="m86.78,24.92l-6.74.55-.82,3.83-6.71.19,5.73-23.17,7.26-.6,9.37,21.93-6.65.9-1.44-3.65Zm-1.82-4.72l-2.47-6.32-1.4,6.64,3.87-.32Z"/>
        <path class="cls-1" d="m111.71,9.43l-6.48.53,1.38,16.77-6.77.56-1.44-16.77-6.42.53-.48-5.81,19.74-1.62.48,5.81Z"/>
        <path class="cls-1" d="m120.49,8.38l.24,2.9,8.35-.69.45,5.48-8.35.69.27,3.23,9-.74.45,5.48-15.77,1.3-1.85-22.58,15.97-1.31.45,5.48-9.19.75Z"/>
      </g>
    </g>
  </g>
</svg>