<?xml version="1.0" encoding="UTF-8"?>
<svg id="Capa_2" data-name="Capa 2" xmlns="http://www.w3.org/2000/svg" viewBox="0 0 210.48 47.99">
  <defs>
    <style>
      .cls-1 {
        fill: #f7b313;
      }

      .cls-2 {
        fill: #ffdf00;
      }

      .cls-3 {
        fill: #fff;
      }

      .cls-4 {
        fill: #ff1e0a;
      }
    </style>
  </defs>
  <g id="Capa_1-2" data-name="Capa 1">
    <g>
      <path class="cls-3" d="m0,0v47.99h198.19c7.81-13.57,12.29-29.32,12.29-47.99H0Z"/>
      <g>
        <g id="Capa_2-2" data-name="Capa 2">
          <g id="Capa_1-2" data-name="Capa 1-2">
            <path class="cls-4" d="m52.79,35.2c-.55,0-1.09-.04-1.63-.12-6.12-.87-10.37-6.54-9.5-12.66.7-4.93,4.57-8.8,9.5-9.5.54-.08,1.08-.12,1.63-.12,6.18,0,11.19,5.01,11.19,11.19,0-8.83-7.16-15.99-15.99-15.99s-15.99,7.16-15.99,15.99,7.16,15.99,15.99,15.99,15.99-7.16,15.99-15.99h0c0,6.18-5,11.2-11.18,11.2t-.01,0Z"/>
            <path class="cls-1" d="m52.79,12.81c-.55,0-1.09.04-1.63.12,6.12.87,10.37,6.54,9.5,12.66-.7,4.93-4.57,8.8-9.5,9.5.54.08,1.08.12,1.63.12,6.18,0,11.19-5.01,11.19-11.19s-5.01-11.19-11.19-11.19h0Z"/>
            <path class="cls-2" d="m51.15,12.93c-3.04.44-5.75,2.12-7.52,4.63,3.56-1.77,7.88-.31,9.65,3.25,1.77,3.56.31,7.88-3.25,9.65-2.02.99-4.38.99-6.39,0,1.77,2.51,4.48,4.18,7.52,4.63,6.12-.87,10.37-6.54,9.5-12.66-.71-4.93-4.58-8.8-9.51-9.5h0Z"/>
          </g>
        </g>
        <path class="cls-4" d="m81.13,20.79l-4.61,11.21h-2.61l-4.59-11.21,1.97-.46,3.92,10.01,3.92-10.01,1.99.46Z"/>
        <path class="cls-4" d="m82.18,16.73c.04-.91.81-1.62,1.72-1.58.85.03,1.54.72,1.58,1.58-.04.91-.81,1.62-1.72,1.58-.85-.03-1.54-.72-1.58-1.58Zm.64,3.81h2.02v11.46h-2.02v-11.46Z"/>
        <path class="cls-4" d="m98.34,20.79l-4.61,11.21h-2.61l-4.59-11.21,1.97-.46,3.92,10.01,3.92-10.01,2,.46Z"/>
        <path class="cls-4" d="m110.58,26.7h-9.72c.23,2.45,2.04,4.06,4.54,4.06,1.53-.06,3.02-.51,4.32-1.31l.44,1.63c-1.5.85-3.18,1.31-4.91,1.35-3.46,0-6.44-2.29-6.44-6.21s3.1-6.12,6-6.12,5.57,2.02,5.75,5.8v.81Zm-1.9-1.49c-.17-1.97-1.83-3.47-3.81-3.46-1.95,0-3.55,1.4-3.94,3.46h7.75Z"/>
        <path class="cls-4" d="m128.71,29.57c-1.47,0-2.31-.9-2.4-1.99,2.38-.15,6.36-.85,6.36-4.37,0-2.54-1.7-3.78-4.25-3.78-4.15,0-6.24,3.4-6.24,6.92,0,3.96,2.17,5.96,5.95,5.96,2.72,0,4.54-.95,4.66-1.08l-1.07-2.68c-.88.62-1.93.97-3.01,1.01Zm-.51-7.3c.5-.03.92.36.95.86v.13c0,1.17-1.72,1.79-3.04,1.87.07-1.67.87-2.86,2.08-2.86h0Z"/>
        <path class="cls-4" d="m138.17,21.21v.02-1.72h-3.3v12.42h4.05v-7.12c0-3.18,3.6-1.74,3.84-1.09v-3.48c-.43-.58-3.02-1.74-4.59.97Z"/>
        <path class="cls-4" d="m149.93,19.29v.02c-1.84.03-3.66.34-5.41.92v17.01h4.08v-5.27c.57.22,1.18.33,1.79.33,3.35,0,5.43-2.2,5.43-6.51s-1.99-6.51-5.9-6.51Zm-.19,9.99h0c-.34,0-.82,0-1.14-.32v-6.48c.31-.09.64-.15.97-.15,1.94,0,2.18,2.04,2.18,3.65s-.39,3.29-2.02,3.29Z"/>
        <path class="cls-4" d="m176.34,28.76l-.08.04c-.44.2-.92.32-1.42.35-.78,0-1.04-.51-1.04-1.6v-11.48h-4.07v11.8c0,2.32.22,4.47,3.98,4.47,1.33.02,2.64-.38,3.73-1.14l-1.11-2.44Z"/>
        <path class="cls-4" d="m163.91,29.57h0c-1.47,0-2.31-.9-2.4-1.99,2.38-.15,6.37-.85,6.37-4.37,0-2.54-1.7-3.78-4.25-3.78-4.15,0-6.24,3.4-6.24,6.92,0,3.97,2.16,5.96,5.95,5.96,2.72,0,4.54-.95,4.66-1.08,0,0-.93-2.04-1.17-2.59-.88.58-1.88.9-2.91.94Zm-.51-7.3c.5-.03.92.35.95.85v.14c0,1.17-1.72,1.79-3.03,1.87.06-1.67.86-2.86,2.08-2.86h0Z"/>
        <path class="cls-4" d="m119.98,22.67l1.83-3.18h-3.83v-3.44h-4.12v11.43c0,2.43.17,4.83,4.3,4.83,1.83,0,2.82-.59,3.13-.81h0l-1.07-2.36h0c-.26.06-.53.09-.79.1-.83,0-1.46-.33-1.46-1.67v-4.89h2.02Z"/>
      </g>
    </g>
  </g>
</svg>